{"glyphs":{"0":{"ha":722,"x_min":0,"x_max":0,"o":"m 36 492 b 361 -17 36 278 85 -17 b 686 492 638 -17 686 278 b 361 1000 686 706 638 1000 b 36 492 85 1000 36 706 z m 128 492 b 361 925 128 644 153 925 b 594 492 569 925 594 644 b 361 58 594 339 569 58 b 128 492 153 58 128 339 z "},"1":{"ha":722,"x_min":0,"x_max":0,"o":"m 363 0 l 446 0 l 446 983 l 375 983 l 132 785 l 183 721 l 361 867 l 363 867 z "},"2":{"ha":722,"x_min":0,"x_max":0,"o":"m 57 0 l 665 0 l 665 75 l 149 75 l 456 390 b 658 749 557 493 658 596 b 375 1000 658 907 526 1000 b 76 774 224 1000 108 925 l 174 764 b 371 925 194 860 269 925 b 567 742 483 925 567 856 b 426 488 567 636 492 556 l 57 97 z "},"3":{"ha":722,"x_min":0,"x_max":0,"o":"m 57 176 b 361 -17 108 43 214 -17 b 665 265 564 -17 665 110 b 456 517 665 390 581 494 l 456 519 b 631 747 569 550 631 640 b 357 1000 631 917 507 1000 b 92 854 244 1000 146 956 l 171 810 b 357 925 208 881 276 925 b 539 744 467 925 539 849 b 319 558 539 610 425 558 l 278 558 l 278 475 l 314 475 b 574 272 439 475 574 418 b 354 58 574 154 500 58 b 147 206 243 58 183 111 z "},"4":{"ha":722,"x_min":0,"x_max":0,"o":"m 457 0 l 540 0 l 540 242 l 690 242 l 690 317 l 540 317 l 540 983 l 425 983 l 32 340 l 32 242 l 457 242 z m 457 317 l 107 317 l 454 892 l 457 892 z "},"5":{"ha":722,"x_min":0,"x_max":0,"o":"m 626 983 l 140 983 l 132 482 b 326 549 188 521 256 549 b 574 293 467 549 574 435 b 351 58 574 136 442 58 b 143 193 263 58 176 119 l 57 150 b 351 -17 111 47 207 -17 b 665 299 496 -17 665 86 b 360 624 665 475 547 624 b 217 596 313 624 260 618 l 221 908 l 626 908 z "},"6":{"ha":722,"x_min":0,"x_max":0,"o":"m 501 983 l 396 983 l 129 540 b 39 289 90 475 39 392 b 361 -17 39 111 175 -17 b 683 289 547 -17 683 111 b 382 592 683 458 557 592 b 236 550 335 592 269 578 l 233 550 z m 361 519 b 592 289 489 519 592 417 b 361 58 592 153 497 58 b 131 289 225 58 131 153 b 361 519 131 417 233 519 z "},"7":{"ha":722,"x_min":0,"x_max":0,"o":"m 615 983 l 57 983 l 57 908 l 529 908 l 131 0 l 224 0 l 615 908 z "},"8":{"ha":722,"x_min":0,"x_max":0,"o":"m 92 744 b 249 528 92 653 153 554 l 249 526 b 57 274 124 500 57 392 b 361 -17 57 97 188 -17 b 665 274 535 -17 665 97 b 474 526 665 392 599 500 l 474 528 b 631 744 569 554 631 653 b 361 1000 631 897 514 1000 b 92 744 208 1000 92 897 z m 183 744 b 361 925 183 853 260 925 b 539 744 463 925 539 853 b 361 564 539 646 467 564 b 183 744 256 564 183 646 z m 149 274 b 361 489 149 403 243 489 b 574 274 479 489 574 403 b 361 58 574 156 490 58 b 149 274 232 58 149 156 z "},"9":{"ha":722,"x_min":0,"x_max":0,"o":"m 221 0 l 326 0 l 593 443 b 683 694 632 508 683 592 b 361 1000 683 872 547 1000 b 39 694 175 1000 39 872 b 340 392 39 525 165 392 b 486 433 388 392 453 406 l 489 433 z m 361 464 b 131 694 233 464 131 567 b 361 925 131 831 225 925 b 592 694 497 925 592 831 b 361 464 592 567 489 464 z "}," ":{"ha":361,"x_min":0,"x_max":0,"o":""},"!":{"ha":514,"x_min":0,"x_max":0,"o":"m 299 983 l 215 983 l 215 258 l 299 258 z m 190 58 b 257 -8 190 21 219 -8 b 324 58 294 -8 324 21 b 257 125 324 96 294 125 b 190 58 219 125 190 96 z "},"\"":{"ha":722,"x_min":0,"x_max":0,"o":"m 224 667 l 307 667 l 307 983 l 224 983 z m 415 667 l 499 667 l 499 983 l 415 983 z "},"#":{"ha":722,"x_min":0,"x_max":0,"o":"m 126 0 l 199 0 l 240 318 l 433 318 l 392 0 l 464 0 l 506 318 l 665 318 l 665 385 l 515 385 l 544 601 l 704 601 l 704 668 l 554 668 l 597 983 l 525 983 l 482 668 l 289 668 l 332 983 l 260 983 l 218 668 l 58 668 l 58 601 l 208 601 l 178 385 l 18 385 l 18 318 l 168 318 z m 443 385 l 251 385 l 281 601 l 472 601 z "},"$":{"ha":722,"x_min":0,"x_max":0,"o":"m 390 436 l 450 414 b 574 257 550 376 574 314 b 390 58 574 146 494 63 z m 324 556 l 300 564 b 157 736 214 594 157 639 b 324 925 157 842 236 910 z m 324 -110 l 390 -110 l 390 -17 b 665 251 532 -8 665 93 b 488 500 665 399 571 471 l 390 533 l 390 925 b 571 821 457 925 528 888 l 647 876 b 390 1000 575 978 483 1000 l 390 1093 l 324 1093 l 324 1000 b 65 731 201 988 65 886 b 225 497 65 669 88 547 l 324 461 l 324 58 b 125 183 244 63 169 108 l 46 129 b 324 -17 111 33 224 -17 z "},"%":{"ha":1132,"x_min":0,"x_max":0,"o":"m 53 761 b 292 522 53 629 160 522 b 531 761 424 522 531 629 b 292 1000 531 893 424 1000 b 53 761 160 1000 53 893 z m 128 761 b 292 925 128 854 201 925 b 456 761 382 925 456 854 b 292 597 456 668 382 597 b 128 761 201 597 128 668 z m 601 222 b 840 -17 601 90 708 -17 b 1079 222 972 -17 1079 90 b 840 461 1079 354 972 461 b 601 222 708 461 601 354 z m 676 222 b 840 386 676 315 750 386 b 1004 222 931 386 1004 315 b 840 58 1004 129 931 58 b 676 222 750 58 676 129 z m 219 -8 l 282 -47 l 917 992 l 853 1031 z "},"&":{"ha":978,"x_min":0,"x_max":0,"o":"m 438 539 b 657 800 547 599 657 658 b 435 1008 657 925 551 1008 b 188 785 304 1008 188 926 b 307 551 188 694 251 618 b 82 261 193 482 82 414 b 382 -25 82 86 215 -25 b 688 151 519 -25 608 44 l 835 -7 l 958 -7 l 735 228 l 913 542 l 818 542 l 676 286 z m 428 925 b 565 793 507 925 565 871 b 385 596 565 689 463 636 b 279 786 343 644 279 718 b 428 925 279 868 346 925 z m 632 210 b 396 58 578 129 499 58 b 174 264 272 58 174 139 b 360 493 174 381 272 440 z "},"’":{"ha":361,"x_min":0,"x_max":0,"o":"m 86 667 l 168 667 l 275 983 l 174 983 z "},"(":{"ha":361,"x_min":0,"x_max":0,"o":"m 274 1017 b 81 400 151 846 81 619 b 279 -217 81 190 150 -37 l 344 -175 b 164 400 231 6 164 183 b 344 972 164 592 224 819 z "},")":{"ha":361,"x_min":0,"x_max":0,"o":"m 88 -217 b 281 400 210 -46 281 181 b 82 1017 281 610 211 838 l 17 975 b 197 400 131 794 197 617 b 17 -172 197 208 138 -19 z "},"*":{"ha":617,"x_min":0,"x_max":0,"o":"m 343 983 l 276 983 l 276 772 l 72 839 l 53 776 l 256 707 l 129 538 l 185 497 l 308 671 l 439 497 l 490 538 l 364 707 l 564 772 l 543 839 l 343 772 z "},"+":{"ha":925,"x_min":0,"x_max":0,"o":"m 108 388 l 429 388 l 429 67 l 496 67 l 496 388 l 817 388 l 817 454 l 496 454 l 496 775 l 429 775 l 429 454 l 108 454 z "},",":{"ha":361,"x_min":0,"x_max":0,"o":"m 69 -192 l 151 -192 l 258 125 l 161 125 z "},"-":{"ha":463,"x_min":0,"x_max":0,"o":"m 60 292 l 403 292 l 403 367 l 60 367 z "},".":{"ha":361,"x_min":0,"x_max":0,"o":"m 114 58 b 181 -8 114 21 143 -8 b 247 58 218 -8 247 21 b 181 125 247 96 218 125 b 114 58 143 125 114 96 z "},"/":{"ha":514,"x_min":0,"x_max":0,"o":"m 13 -25 l 86 -50 l 507 1008 l 435 1033 z "},":":{"ha":361,"x_min":0,"x_max":0,"o":"m 114 583 b 181 517 114 546 143 517 b 247 583 218 517 247 546 b 181 650 247 621 218 650 b 114 583 143 650 114 621 z m 114 58 b 181 -8 114 21 143 -8 b 247 58 218 -8 247 21 b 181 125 247 96 218 125 b 114 58 143 125 114 96 z "},";":{"ha":361,"x_min":0,"x_max":0,"o":"m 69 -192 l 151 -192 l 258 125 l 161 125 z m 114 583 b 181 517 114 546 143 517 b 247 583 218 517 247 546 b 181 650 247 621 218 650 b 114 583 143 650 114 621 z "},"<":{"ha":925,"x_min":0,"x_max":0,"o":"m 811 779 l 114 454 l 114 388 l 811 63 l 811 132 l 189 421 l 811 710 z "},"=":{"ha":925,"x_min":0,"x_max":0,"o":"m 108 488 l 817 488 l 817 554 l 108 554 z m 108 288 l 817 288 l 817 354 l 108 354 z "},">":{"ha":925,"x_min":0,"x_max":0,"o":"m 114 63 l 811 388 l 811 454 l 114 779 l 114 710 l 736 421 l 114 132 z "},"?":{"ha":643,"x_min":0,"x_max":0,"o":"m 283 258 l 367 258 l 367 347 b 592 769 367 542 592 536 b 336 1008 592 922 482 1008 b 65 783 199 1008 90 925 l 156 772 b 338 933 175 868 240 933 b 500 765 439 933 500 864 b 283 375 500 583 283 560 z m 260 58 b 326 -8 260 21 289 -8 b 393 58 364 -8 393 21 b 326 125 393 96 364 125 b 260 58 289 125 260 96 z "},"@":{"ha":1111,"x_min":0,"x_max":0,"o":"m 353 389 b 592 714 353 521 451 714 b 704 572 669 714 704 661 b 469 257 704 451 600 257 b 353 389 397 257 353 313 z m 864 763 l 781 763 l 747 674 l 744 674 b 597 789 719 758 658 789 b 269 386 394 789 269 579 b 457 182 269 275 332 182 b 636 275 529 182 599 229 l 639 275 b 725 182 639 213 678 182 b 1050 592 882 182 1050 361 b 575 1008 1050 829 846 1008 b 61 493 289 1008 61 782 b 581 -25 61 206 279 -25 b 1014 225 756 -25 929 71 l 933 225 b 581 42 861 118 718 42 b 136 493 335 42 136 246 b 578 942 136 729 325 942 b 975 592 786 942 975 799 b 750 257 975 436 846 257 b 714 293 719 257 714 279 b 729 360 714 304 719 331 z "},"A":{"ha":951,"x_min":0,"x_max":0,"o":"m 7 0 l 103 0 l 214 261 l 735 261 l 842 0 l 944 0 l 531 983 l 436 983 z m 701 344 l 250 344 l 479 883 z "},"B":{"ha":875,"x_min":0,"x_max":0,"o":"m 135 0 l 449 0 b 778 275 582 0 778 49 b 558 517 778 413 688 507 l 558 519 b 735 724 675 543 735 624 b 418 983 735 946 568 983 l 135 983 z m 226 900 l 429 900 b 643 724 546 900 643 861 b 417 558 643 663 607 558 l 226 558 z m 226 475 l 450 475 b 686 272 567 475 686 418 b 436 83 686 203 651 83 l 226 83 z "},"C":{"ha":978,"x_min":0,"x_max":0,"o":"m 869 211 b 579 58 800 106 678 58 b 163 492 322 58 163 247 b 579 925 163 736 322 925 b 843 792 678 925 782 883 l 918 854 b 579 1008 832 964 713 1008 b 71 492 279 1008 71 792 b 579 -25 71 192 279 -25 b 944 154 724 -25 851 26 z "},"D":{"ha":1029,"x_min":0,"x_max":0,"o":"m 122 0 l 426 0 b 958 492 938 0 958 419 b 426 983 958 564 938 983 l 122 983 z m 214 900 l 403 900 b 867 492 664 900 867 774 b 403 83 867 210 664 83 l 214 83 z "},"E":{"ha":824,"x_min":0,"x_max":0,"o":"m 135 0 l 758 0 l 758 83 l 226 83 l 226 467 l 704 467 l 704 550 l 226 550 l 226 900 l 736 900 l 736 983 l 135 983 z "},"F":{"ha":772,"x_min":0,"x_max":0,"o":"m 135 0 l 226 0 l 226 467 l 689 467 l 689 550 l 226 550 l 226 900 l 724 900 l 724 983 l 135 983 z "},"G":{"ha":1081,"x_min":0,"x_max":0,"o":"m 946 531 l 618 531 l 618 447 l 854 447 l 854 117 b 579 58 779 72 685 58 b 163 492 322 58 163 247 b 579 925 163 736 322 925 b 867 803 686 925 807 875 l 933 872 b 579 1008 843 964 725 1008 b 71 492 279 1008 71 792 b 579 -25 71 192 279 -25 b 946 64 707 -25 832 -1 z "},"H":{"ha":1003,"x_min":0,"x_max":0,"o":"m 135 0 l 226 0 l 226 467 l 776 467 l 776 0 l 868 0 l 868 983 l 776 983 l 776 550 l 226 550 l 226 983 l 135 983 z "},"I":{"ha":361,"x_min":0,"x_max":0,"o":"m 135 0 l 226 0 l 226 983 l 135 983 z "},"J":{"ha":669,"x_min":0,"x_max":0,"o":"m 535 983 l 443 983 l 443 267 b 265 58 443 147 396 58 b 101 193 179 58 124 101 l 10 176 b 265 -25 38 56 122 -25 b 535 289 519 -25 535 171 z "},"K":{"ha":849,"x_min":0,"x_max":0,"o":"m 135 0 l 226 0 l 226 508 l 235 508 l 733 0 l 865 0 l 340 533 l 838 983 l 711 983 l 235 550 l 226 550 l 226 983 l 135 983 z "},"L":{"ha":694,"x_min":0,"x_max":0,"o":"m 135 0 l 685 0 l 685 83 l 226 83 l 226 983 l 135 983 z "},"M":{"ha":1235,"x_min":0,"x_max":0,"o":"m 125 0 l 217 0 l 217 867 l 219 867 l 600 0 l 640 0 l 1015 867 l 1018 867 l 1018 0 l 1110 0 l 1110 983 l 979 983 l 621 158 l 263 983 l 125 983 z "},"N":{"ha":1081,"x_min":0,"x_max":0,"o":"m 135 0 l 226 0 l 226 861 l 229 861 l 828 0 l 946 0 l 946 983 l 854 983 l 854 122 l 851 122 l 253 983 l 135 983 z "},"O":{"ha":1158,"x_min":0,"x_max":0,"o":"m 71 492 b 579 -25 71 192 279 -25 b 1088 492 879 -25 1088 192 b 579 1008 1088 792 879 1008 b 71 492 279 1008 71 792 z m 163 492 b 579 925 163 736 322 925 b 996 492 836 925 996 736 b 579 58 996 247 836 58 b 163 492 322 58 163 247 z "},"P":{"ha":797,"x_min":0,"x_max":0,"o":"m 135 0 l 226 0 l 226 467 l 439 467 b 735 724 593 467 735 546 b 418 983 735 929 557 983 l 135 983 z m 226 900 l 429 900 b 643 724 535 900 643 850 b 435 550 643 594 539 550 l 226 550 z "},"Q":{"ha":1158,"x_min":0,"x_max":0,"o":"m 1129 83 l 822 83 l 822 86 b 1068 504 975 144 1068 332 b 569 1008 1068 789 874 1008 b 71 504 265 1008 71 789 b 588 0 71 201 314 0 l 1129 0 z m 163 504 b 569 925 163 743 314 925 b 976 504 825 925 976 743 b 585 83 976 286 838 83 b 163 504 338 83 163 274 z "},"R":{"ha":824,"x_min":0,"x_max":0,"o":"m 226 900 l 421 900 b 651 725 614 900 651 793 b 421 550 651 657 614 550 l 226 550 z m 135 0 l 226 0 l 226 467 l 397 467 l 674 0 l 778 0 l 492 472 b 743 725 600 486 743 538 b 393 983 743 983 471 983 l 135 983 z "},"S":{"ha":772,"x_min":0,"x_max":0,"o":"m 74 124 b 393 -25 150 17 264 -25 b 699 251 553 -25 699 74 b 192 739 699 621 192 443 b 413 925 192 864 294 925 b 604 828 497 925 558 892 l 683 885 b 415 1008 617 972 522 1008 b 100 739 250 1008 100 914 b 607 251 100 365 607 526 b 386 58 607 133 510 58 b 161 182 289 58 210 100 z "},"T":{"ha":797,"x_min":0,"x_max":0,"o":"m 353 0 l 444 0 l 444 900 l 781 900 l 781 983 l 17 983 l 17 900 l 353 900 z "},"U":{"ha":950,"x_min":0,"x_max":0,"o":"m 833 983 l 742 983 l 742 400 b 475 58 742 260 704 58 b 208 400 246 58 208 260 l 208 983 l 117 983 l 117 376 b 475 -25 117 167 207 -25 b 833 376 743 -25 833 167 z "},"V":{"ha":824,"x_min":0,"x_max":0,"o":"m 363 0 l 454 0 l 828 983 l 731 983 l 411 121 l 94 983 l -4 983 z "},"W":{"ha":1311,"x_min":0,"x_max":0,"o":"m 293 0 l 406 0 l 654 875 l 657 875 l 906 0 l 1018 0 l 1304 983 l 1210 983 l 965 113 l 963 113 l 714 983 l 597 983 l 349 113 l 346 113 l 101 983 l 7 983 z "},"X":{"ha":849,"x_min":0,"x_max":0,"o":"m 1 0 l 111 0 l 422 444 l 733 0 l 847 0 l 482 517 l 815 983 l 706 983 l 426 583 l 143 983 l 35 983 l 371 517 z "},"Y":{"ha":797,"x_min":0,"x_max":0,"o":"m 353 0 l 444 0 l 444 424 l 806 983 l 703 983 l 399 517 l 101 983 l -8 983 l 353 424 z "},"Z":{"ha":772,"x_min":0,"x_max":0,"o":"m 32 0 l 740 0 l 740 83 l 146 83 l 725 908 l 725 983 l 40 983 l 40 900 l 607 900 l 32 72 z "},"[":{"ha":361,"x_min":0,"x_max":0,"o":"m 311 1017 l 103 1017 l 103 -217 l 311 -217 l 311 -150 l 186 -150 l 186 950 l 311 950 z "},"\\":{"ha":514,"x_min":0,"x_max":0,"o":"m 79 1033 l 7 1008 l 428 -50 l 501 -25 z "},"]":{"ha":361,"x_min":0,"x_max":0,"o":"m 50 -217 l 258 -217 l 258 1017 l 50 1017 l 50 950 l 175 950 l 175 -150 l 50 -150 z "},"^":{"ha":925,"x_min":0,"x_max":0,"o":"m 114 356 l 193 356 l 463 908 l 733 356 l 811 356 l 494 983 l 431 983 z "},"_":{"ha":694,"x_min":0,"x_max":0,"o":"m 0 -174 l 694 -174 l 694 -104 l 0 -104 z "},"‘":{"ha":361,"x_min":0,"x_max":0,"o":"m 275 983 l 192 983 l 86 667 l 186 667 z "},"a":{"ha":721,"x_min":0,"x_max":0,"o":"m 610 426 b 354 658 610 589 510 658 b 110 568 271 658 171 626 l 158 511 b 354 583 215 560 279 583 b 535 428 457 583 535 539 l 535 389 l 438 389 b 82 174 311 389 82 369 b 308 -17 82 38 199 -17 b 533 104 417 -17 486 22 l 536 104 b 544 0 536 68 539 32 l 622 0 b 610 269 613 74 610 144 z m 535 322 l 535 279 b 311 58 535 172 489 58 b 165 178 242 58 165 99 b 443 322 165 288 304 322 z "},"b":{"ha":849,"x_min":0,"x_max":0,"o":"m 93 0 l 176 0 l 176 113 l 179 113 b 436 -17 231 24 340 -17 b 774 321 633 -17 774 125 b 436 658 774 517 633 658 b 179 529 340 658 231 618 l 176 529 l 176 1050 l 93 1050 z m 168 321 b 436 583 168 465 285 583 b 690 321 593 583 690 465 b 436 58 690 176 593 58 b 168 321 285 58 168 176 z "},"c":{"ha":668,"x_min":0,"x_max":0,"o":"m 585 147 b 413 58 542 94 482 58 b 158 321 256 58 158 176 b 413 583 158 465 256 583 b 585 497 479 583 536 550 l 651 547 b 413 658 589 618 506 658 b 75 321 215 658 75 517 b 413 -17 75 125 215 -17 b 649 94 504 -17 586 19 z "},"d":{"ha":849,"x_min":0,"x_max":0,"o":"m 672 0 l 756 0 l 756 1050 l 672 1050 l 672 529 l 669 529 b 413 658 618 618 508 658 b 75 321 215 658 75 517 b 413 -17 75 125 215 -17 b 669 113 508 -17 618 24 l 672 113 z m 681 321 b 413 58 681 176 564 58 b 158 321 256 58 158 176 b 413 583 158 465 256 583 b 681 321 564 583 681 465 z "},"e":{"ha":772,"x_min":0,"x_max":0,"o":"m 617 172 b 401 58 575 103 486 58 b 158 300 207 58 158 231 l 697 300 l 697 358 b 396 658 697 507 593 658 b 75 322 208 658 75 514 b 400 -17 75 124 204 -17 b 678 121 514 -17 613 24 z m 158 375 b 392 583 158 408 210 583 b 614 375 515 583 614 489 z "},"f":{"ha":411,"x_min":0,"x_max":0,"o":"m 158 0 l 242 0 l 242 567 l 392 567 l 392 642 l 242 642 l 242 821 b 354 992 242 936 278 992 b 429 978 386 992 410 988 l 446 1050 b 350 1067 421 1061 390 1067 b 158 851 268 1067 158 1017 l 158 642 l 25 642 l 25 567 l 158 567 z "},"g":{"ha":849,"x_min":0,"x_max":0,"o":"m 756 642 l 672 642 l 672 533 l 669 533 b 426 658 621 610 536 658 b 83 329 238 658 83 510 b 426 0 83 149 238 0 b 669 125 536 0 621 49 l 672 125 l 672 36 b 414 -258 672 -36 668 -258 b 161 -137 314 -258 219 -219 l 96 -199 b 414 -333 161 -283 285 -333 b 756 42 544 -333 756 -278 z m 675 329 b 421 75 675 189 561 75 b 167 329 281 75 167 189 b 421 583 167 469 281 583 b 675 329 561 583 675 469 z "},"h":{"ha":772,"x_min":0,"x_max":0,"o":"m 111 0 l 194 0 l 194 321 b 417 583 194 497 293 583 b 578 378 549 583 578 482 l 578 0 l 661 0 l 661 382 b 417 658 661 522 617 658 b 197 529 313 658 231 600 l 194 529 l 194 1050 l 111 1050 z "},"i":{"ha":333,"x_min":0,"x_max":0,"o":"m 125 0 l 208 0 l 208 642 l 125 642 z m 104 896 b 167 833 104 861 132 833 b 229 896 201 833 229 861 b 167 958 229 931 201 958 b 104 896 132 958 104 931 z "},"j":{"ha":333,"x_min":0,"x_max":0,"o":"m 208 642 l 125 642 l 125 -119 b 24 -258 125 -192 114 -258 b -29 -247 6 -258 -11 -254 l -42 -321 b 25 -333 -19 -329 3 -333 b 208 -112 172 -333 208 -244 z m 104 896 b 167 833 104 861 132 833 b 229 896 201 833 229 861 b 167 958 229 931 201 958 b 104 896 132 958 104 931 z "},"k":{"ha":668,"x_min":0,"x_max":0,"o":"m 111 0 l 194 0 l 194 339 l 546 0 l 672 0 l 303 347 l 633 640 l 511 640 l 194 350 l 194 1050 l 111 1050 z "},"l":{"ha":333,"x_min":0,"x_max":0,"o":"m 125 0 l 208 0 l 208 1050 l 125 1050 z "},"m":{"ha":1183,"x_min":0,"x_max":0,"o":"m 111 0 l 194 0 l 194 321 b 417 583 194 497 293 583 b 550 386 507 583 550 504 l 550 0 l 633 0 l 633 361 b 828 583 633 453 674 583 b 989 378 960 583 989 482 l 989 0 l 1072 0 l 1072 382 b 828 658 1072 522 1028 658 b 610 519 739 658 650 615 b 417 658 579 617 501 658 b 197 529 313 658 231 600 l 193 529 b 188 642 190 542 189 594 l 104 642 b 111 461 104 608 111 508 z "},"n":{"ha":772,"x_min":0,"x_max":0,"o":"m 111 0 l 194 0 l 194 321 b 417 583 194 497 293 583 b 578 378 549 583 578 482 l 578 0 l 661 0 l 661 382 b 417 658 661 522 617 658 b 197 529 313 658 231 600 l 193 529 b 188 642 190 542 189 594 l 104 642 b 111 461 104 608 111 508 z "},"o":{"ha":825,"x_min":0,"x_max":0,"o":"m 75 321 b 413 -17 75 125 215 -17 b 750 321 610 -17 750 125 b 413 658 750 517 610 658 b 75 321 215 658 75 517 z m 158 321 b 413 583 158 465 256 583 b 667 321 569 583 667 465 b 413 58 667 176 569 58 b 158 321 256 58 158 176 z "},"p":{"ha":849,"x_min":0,"x_max":0,"o":"m 93 -317 l 176 -317 l 176 113 l 179 113 b 436 -17 231 24 340 -17 b 774 321 633 -17 774 125 b 436 658 774 517 633 658 b 179 529 340 658 231 618 l 176 529 l 176 642 l 93 642 z m 168 321 b 436 583 168 465 285 583 b 690 321 593 583 690 465 b 436 58 690 176 593 58 b 168 321 285 58 168 176 z "},"q":{"ha":849,"x_min":0,"x_max":0,"o":"m 672 -317 l 756 -317 l 756 642 l 672 642 l 672 529 l 669 529 b 413 658 618 618 508 658 b 75 321 215 658 75 517 b 413 -17 75 125 215 -17 b 669 113 508 -17 618 24 l 672 113 z m 681 321 b 413 58 681 176 564 58 b 158 321 256 58 158 176 b 413 583 158 465 256 583 b 681 321 564 583 681 465 z "},"r":{"ha":463,"x_min":0,"x_max":0,"o":"m 111 0 l 194 0 l 194 350 b 404 575 194 475 260 575 b 436 569 413 575 424 574 l 446 651 b 397 658 429 656 414 658 b 193 529 301 658 235 604 b 188 642 190 542 189 594 l 104 642 b 111 461 104 608 111 508 z "},"s":{"ha":592,"x_min":0,"x_max":0,"o":"m 39 114 b 297 -17 89 25 188 -17 b 529 182 419 -17 529 50 b 149 481 529 442 149 307 b 285 583 149 547 225 583 b 436 493 360 583 404 551 l 511 538 b 285 658 469 619 389 658 b 65 474 179 658 65 599 b 446 176 65 229 446 353 b 299 58 446 103 371 58 b 113 164 224 58 147 96 z "},"t":{"ha":463,"x_min":0,"x_max":0,"o":"m 425 642 l 242 642 l 242 826 l 158 826 l 158 642 l 19 642 l 19 567 l 158 567 l 158 149 b 324 -17 158 57 204 -17 b 432 6 356 -17 401 -6 l 425 81 b 331 58 396 68 363 58 b 242 149 275 58 242 92 l 242 567 l 425 567 z "},"u":{"ha":772,"x_min":0,"x_max":0,"o":"m 654 642 l 571 642 l 571 321 b 349 58 571 144 472 58 b 188 264 217 58 188 160 l 188 642 l 104 642 l 104 260 b 349 -17 104 119 149 -17 b 568 113 453 -17 535 42 l 572 113 b 578 0 575 100 576 47 l 661 0 b 654 181 661 33 654 133 z "},"v":{"ha":643,"x_min":0,"x_max":0,"o":"m 283 0 l 369 0 l 622 642 l 538 642 l 329 90 l 115 642 l 21 642 z "},"w":{"ha":978,"x_min":0,"x_max":0,"o":"m 222 0 l 308 0 l 488 525 l 490 525 l 682 0 l 768 0 l 957 642 l 874 642 l 722 104 l 719 104 l 529 642 l 450 642 l 271 104 l 268 104 l 113 642 l 21 642 z "},"x":{"ha":668,"x_min":0,"x_max":0,"o":"m 8 0 l 108 0 l 328 290 l 551 0 l 660 0 l 385 347 l 611 642 l 507 642 l 331 399 l 153 642 l 46 642 l 275 347 z "},"y":{"ha":643,"x_min":0,"x_max":0,"o":"m 622 642 l 533 642 l 326 101 l 114 642 l 21 642 l 282 -3 l 224 -151 b 117 -258 204 -201 178 -258 b 42 -243 92 -258 65 -250 l 33 -321 b 115 -333 60 -328 88 -333 b 292 -199 207 -333 260 -281 z "},"z":{"ha":592,"x_min":0,"x_max":0,"o":"m 38 0 l 554 0 l 554 75 l 154 75 l 538 592 l 538 642 l 57 642 l 57 567 l 422 567 l 38 50 z "},"{":{"ha":463,"x_min":0,"x_max":0,"o":"m 381 1017 l 311 1017 b 189 849 233 1017 189 953 l 189 647 b 92 433 189 539 169 433 l 92 367 b 189 154 169 367 189 263 l 189 -49 b 311 -217 189 -151 233 -217 l 381 -217 l 381 -150 l 349 -150 b 272 -15 292 -150 272 -83 l 272 182 b 175 399 274 326 193 389 l 175 401 b 272 618 193 410 274 472 l 272 814 b 349 950 272 883 292 950 l 381 950 z "},"|":{"ha":308,"x_min":0,"x_max":0,"o":"m 121 1042 l 121 -347 l 188 -347 l 188 1042 z "},"}":{"ha":463,"x_min":0,"x_max":0,"o":"m 82 -217 l 151 -217 b 274 -49 229 -217 274 -153 l 274 153 b 371 367 274 261 293 367 l 371 433 b 274 646 293 433 274 538 l 274 849 b 151 1017 274 951 229 1017 l 82 1017 l 82 950 l 114 950 b 190 815 171 950 190 883 l 190 618 b 288 401 189 474 269 411 l 288 399 b 190 182 269 390 189 328 l 190 -14 b 114 -150 190 -83 171 -150 l 82 -150 z "},"~":{"ha":925,"x_min":0,"x_max":0,"o":"m 735 506 b 613 411 703 457 668 411 b 476 456 578 411 529 432 b 317 506 425 478 368 506 b 143 381 224 506 174 439 l 190 336 b 313 431 222 385 257 431 b 449 386 347 431 396 410 b 608 336 500 364 557 336 b 782 461 701 336 751 397 z "},"¡":{"ha":514,"x_min":0,"x_max":0,"o":"m 215 -308 l 299 -308 l 299 417 l 215 417 z m 324 617 b 257 683 324 654 294 683 b 190 617 219 683 190 654 b 257 550 190 579 219 550 b 324 617 294 550 324 579 z "},"¢":{"ha":722,"x_min":0,"x_max":0,"o":"m 356 65 b 156 324 233 90 156 203 b 356 579 156 446 228 560 z m 422 581 b 583 497 490 575 540 544 l 650 547 b 422 656 590 614 513 654 l 422 754 l 356 754 l 356 654 b 72 324 189 631 72 497 b 356 -12 72 150 186 11 l 356 -112 l 422 -112 l 422 -17 b 647 94 513 -14 589 24 l 583 147 b 422 58 543 97 488 61 z "},"£":{"ha":722,"x_min":0,"x_max":0,"o":"m 81 0 l 658 0 l 658 75 l 318 75 l 318 475 l 547 475 l 547 550 l 318 550 l 318 722 b 514 925 318 806 374 925 b 661 856 574 925 622 894 l 717 922 b 518 1000 658 974 592 1000 b 226 713 303 1000 226 838 l 226 550 l 94 550 l 94 475 l 226 475 l 226 75 l 81 75 z "},"⁄":{"ha":233,"x_min":0,"x_max":0,"o":"m -232 -8 l -169 -47 l 465 992 l 401 1031 z "},"¥":{"ha":722,"x_min":0,"x_max":0,"o":"m 315 0 l 407 0 l 407 250 l 643 250 l 643 317 l 407 317 l 407 424 l 419 446 l 643 446 l 643 513 l 457 513 l 722 983 l 632 983 l 361 506 l 94 983 l 0 983 l 265 513 l 79 513 l 79 446 l 303 446 l 315 424 l 315 317 l 79 317 l 79 250 l 315 250 z "},"ƒ":{"ha":722,"x_min":0,"x_max":0,"o":"m 549 582 l 399 582 l 439 800 b 554 925 451 868 483 925 b 635 896 583 925 611 913 l 679 958 b 554 1000 643 985 599 1000 b 356 796 424 1000 374 893 l 315 582 l 153 582 l 153 515 l 303 515 l 214 29 b 93 -125 196 -71 167 -125 b 19 -101 68 -125 40 -118 l -22 -167 b 88 -200 8 -192 49 -200 b 286 -28 207 -200 265 -135 l 386 515 l 549 515 z "},"§":{"ha":722,"x_min":0,"x_max":0,"o":"m 294 315 b 200 438 243 342 200 367 b 335 569 200 511 275 550 l 439 513 b 542 376 483 489 542 443 b 436 243 542 318 483 268 z m 89 -33 b 356 -200 133 -149 240 -200 b 614 32 489 -200 614 -117 b 510 203 614 106 571 167 b 633 386 581 242 633 301 b 233 790 633 633 233 613 b 396 925 233 881 313 925 b 542 831 463 925 515 893 l 622 878 b 400 1008 586 971 493 1008 b 142 790 272 1008 142 933 b 256 614 142 707 189 654 b 108 435 178 581 108 529 b 522 18 108 176 522 206 b 354 -117 522 -71 438 -117 b 174 8 268 -117 204 -74 z "},"¤":{"ha":722,"x_min":0,"x_max":0,"o":"m 19 197 l 67 146 l 146 224 b 361 150 207 176 283 150 b 576 224 439 150 515 176 l 656 146 l 703 197 l 624 274 b 707 492 678 332 707 407 b 624 710 707 576 678 651 l 703 786 l 656 838 l 576 760 b 361 833 515 807 439 833 b 146 760 283 833 207 807 l 67 838 l 19 786 l 99 710 b 15 492 44 651 15 576 b 99 274 15 407 44 332 z m 99 492 b 361 758 99 640 218 758 b 624 492 504 758 624 640 b 361 225 624 344 504 225 b 99 492 218 225 99 344 z "},"'":{"ha":361,"x_min":0,"x_max":0,"o":"m 139 667 l 222 667 l 222 983 l 139 983 z "},"“":{"ha":722,"x_min":0,"x_max":0,"o":"m 335 983 l 253 983 l 146 667 l 247 667 z m 576 983 l 494 983 l 388 667 l 489 667 z "},"«":{"ha":668,"x_min":0,"x_max":0,"o":"m 278 47 l 339 85 l 175 329 l 336 571 l 278 611 l 88 329 z m 508 47 l 569 85 l 406 329 l 567 571 l 508 611 l 318 329 z "},"‹":{"ha":438,"x_min":0,"x_max":0,"o":"m 278 47 l 339 85 l 175 329 l 336 571 l 278 611 l 88 329 z "},"›":{"ha":438,"x_min":0,"x_max":0,"o":"m 160 611 l 99 574 l 263 329 l 101 88 l 160 47 l 350 329 z "},"ﬁ":{"ha":721,"x_min":0,"x_max":0,"o":"m 513 0 l 596 0 l 596 642 l 513 642 z m 492 896 b 554 833 492 861 519 833 b 617 896 589 833 617 861 b 554 958 617 931 589 958 b 492 896 519 958 492 931 z m 158 0 l 242 0 l 242 567 l 392 567 l 392 642 l 242 642 l 242 821 b 354 992 242 936 278 992 b 429 978 386 992 410 988 l 446 1050 b 350 1067 421 1061 390 1067 b 158 851 268 1067 158 1017 l 158 642 l 25 642 l 25 567 l 158 567 z "},"ﬂ":{"ha":721,"x_min":0,"x_max":0,"o":"m 158 0 l 242 0 l 242 567 l 392 567 l 392 642 l 242 642 l 242 821 b 354 992 242 936 278 992 b 429 978 386 992 410 988 l 446 1050 b 350 1067 421 1061 390 1067 b 158 851 268 1067 158 1017 l 158 642 l 25 642 l 25 567 l 158 567 z m 513 0 l 596 0 l 596 1050 l 513 1050 z "},"–":{"ha":694,"x_min":0,"x_max":0,"o":"m 0 292 l 694 292 l 694 367 l 0 367 z "},"†":{"ha":722,"x_min":0,"x_max":0,"o":"m 319 -175 l 403 -175 l 403 640 l 669 640 l 669 707 l 403 707 l 403 983 l 319 983 l 319 707 l 53 707 l 53 640 l 319 640 z "},"‡":{"ha":722,"x_min":0,"x_max":0,"o":"m 319 -175 l 403 -175 l 403 101 l 669 101 l 669 168 l 403 168 l 403 640 l 669 640 l 669 707 l 403 707 l 403 983 l 319 983 l 319 707 l 53 707 l 53 640 l 319 640 l 319 168 l 53 168 l 53 101 l 319 101 z "},"·":{"ha":361,"x_min":0,"x_max":0,"o":"m 114 442 b 181 375 114 404 143 375 b 247 442 218 375 247 404 b 181 508 247 479 218 508 b 114 442 143 508 114 479 z "},"¶":{"ha":833,"x_min":0,"x_max":0,"o":"m 371 -175 l 454 -175 l 454 917 l 625 917 l 625 -175 l 708 -175 l 708 983 l 393 983 b 83 711 199 983 83 886 b 371 449 83 568 208 449 z "},"•":{"ha":694,"x_min":0,"x_max":0,"o":"m 101 492 b 347 246 101 356 211 246 b 593 492 483 246 593 356 b 347 738 593 628 483 738 b 101 492 211 738 101 628 z "},"‚":{"ha":361,"x_min":0,"x_max":0,"o":"m 86 -192 l 168 -192 l 275 125 l 174 125 z "},"„":{"ha":722,"x_min":0,"x_max":0,"o":"m 388 -192 l 469 -192 l 576 125 l 475 125 z m 146 -192 l 228 -192 l 335 125 l 233 125 z "},"”":{"ha":722,"x_min":0,"x_max":0,"o":"m 388 667 l 469 667 l 576 983 l 475 983 z m 146 667 l 228 667 l 335 983 l 233 983 z "},"»":{"ha":668,"x_min":0,"x_max":0,"o":"m 160 611 l 99 574 l 263 329 l 101 88 l 160 47 l 350 329 z m 390 611 l 329 574 l 493 329 l 332 88 l 390 47 l 581 329 z "},"…":{"ha":1389,"x_min":0,"x_max":0,"o":"m 165 58 b 232 -8 165 21 194 -8 b 299 58 269 -8 299 21 b 232 125 299 96 269 125 b 165 58 194 125 165 96 z m 628 58 b 694 -8 628 21 657 -8 b 761 58 732 -8 761 21 b 694 125 761 96 732 125 b 628 58 657 125 628 96 z m 1090 58 b 1157 -8 1090 21 1119 -8 b 1224 58 1194 -8 1224 21 b 1157 125 1224 96 1194 125 b 1090 58 1119 125 1090 96 z "},"‰":{"ha":1363,"x_min":0,"x_max":0,"o":"m 425 196 b 638 -17 425 79 521 -17 b 850 196 754 -17 850 79 b 638 408 850 313 754 408 b 425 196 521 408 425 313 z m 492 196 b 638 342 492 276 557 342 b 783 196 718 342 783 276 b 638 50 783 115 718 50 b 492 196 557 50 492 115 z m 901 196 b 1114 -17 901 79 997 -17 b 1326 196 1231 -17 1326 79 b 1114 408 1326 313 1231 408 b 901 196 997 408 901 313 z m 968 196 b 1114 342 968 276 1033 342 b 1260 196 1194 342 1260 276 b 1114 50 1260 115 1194 50 b 968 196 1033 50 968 115 z m 36 788 b 249 575 36 671 132 575 b 461 788 365 575 461 671 b 249 1000 461 904 365 1000 b 36 788 132 1000 36 904 z m 103 788 b 249 933 103 868 168 933 b 394 788 329 933 394 868 b 249 642 394 707 329 642 b 103 788 168 642 103 707 z m 92 -8 l 154 -47 l 789 992 l 725 1031 z "},"¿":{"ha":643,"x_min":0,"x_max":0,"o":"m 360 417 l 276 417 l 276 328 b 51 -94 276 133 51 139 b 307 -333 51 -247 161 -333 b 578 -108 444 -333 553 -250 l 488 -97 b 306 -258 468 -193 403 -258 b 143 -90 204 -258 143 -189 b 360 300 143 92 360 115 z m 383 617 b 317 683 383 654 354 683 b 250 617 279 683 250 654 b 317 550 250 579 279 550 b 383 617 354 550 383 579 z "},"`":{"ha":333,"x_min":0,"x_max":0,"o":"m 103 983 l -8 983 l 178 783 l 247 783 z "},"´":{"ha":333,"x_min":0,"x_max":0,"o":"m 86 783 l 156 783 l 342 983 l 231 983 z "},"ˆ":{"ha":333,"x_min":0,"x_max":0,"o":"m -32 783 l 50 783 l 163 933 l 275 783 l 365 783 l 215 983 l 118 983 z "},"˜":{"ha":333,"x_min":0,"x_max":0,"o":"m 0 807 b 71 874 8 840 28 874 b 163 840 99 874 129 856 b 267 807 196 825 231 807 b 383 949 340 807 375 881 l 333 949 b 267 882 326 915 307 882 b 179 914 240 882 210 899 b 75 949 147 931 113 949 b -12 901 38 949 8 929 b -50 807 -33 875 -46 839 z "},"¯":{"ha":333,"x_min":0,"x_max":0,"o":"m 350 908 l -17 908 l -17 842 l 350 842 z "},"˘":{"ha":333,"x_min":0,"x_max":0,"o":"m -33 983 b 164 808 -28 872 56 808 b 367 983 274 808 354 872 l 308 983 b 164 875 290 903 246 875 b 25 983 92 875 36 910 z "},"˙":{"ha":333,"x_min":0,"x_max":0,"o":"m 104 906 b 171 839 104 868 133 839 b 238 906 208 839 238 868 b 171 972 238 943 208 972 b 104 906 133 972 104 943 z "},"¨":{"ha":333,"x_min":0,"x_max":0,"o":"m -32 906 b 35 839 -32 868 -3 839 b 101 906 72 839 101 868 b 35 972 101 943 72 972 b -32 906 -3 972 -32 943 z m 232 906 b 299 839 232 868 261 839 b 365 906 336 839 365 868 b 299 972 365 943 336 972 b 232 906 261 972 232 943 z "},"˚":{"ha":333,"x_min":0,"x_max":0,"o":"m 38 901 b 168 769 38 831 96 769 b 296 900 239 769 296 832 b 168 1033 296 969 240 1033 b 38 901 96 1033 38 972 z m 246 901 b 167 819 246 856 213 819 b 88 900 122 819 88 854 b 167 983 88 946 121 983 b 246 901 213 983 246 947 z "},"¸":{"ha":333,"x_min":0,"x_max":0,"o":"m 238 0 l 185 0 l 97 -122 l 119 -143 b 181 -132 138 -136 157 -132 b 258 -190 217 -132 258 -149 b 171 -250 258 -233 207 -250 b 65 -226 131 -250 97 -243 l 46 -271 b 178 -300 88 -290 132 -300 b 333 -182 250 -300 333 -265 b 218 -82 333 -115 278 -82 b 175 -92 200 -82 188 -85 l 172 -89 z "},"˝":{"ha":333,"x_min":0,"x_max":0,"o":"m -15 783 l 54 783 l 240 983 l 129 983 z m 188 783 l 257 783 l 443 983 l 332 983 z "},"˛":{"ha":333,"x_min":0,"x_max":0,"o":"m 233 -201 b 157 -233 221 -215 196 -233 b 97 -168 118 -233 97 -210 b 199 0 97 -97 158 -31 l 136 0 b 14 -186 79 -44 14 -110 b 142 -300 14 -257 68 -300 b 260 -254 193 -300 231 -281 z "},"ˇ":{"ha":333,"x_min":0,"x_max":0,"o":"m 360 983 l 285 983 l 165 825 l 50 983 l -36 983 l 115 783 l 213 783 z "},"—":{"ha":1389,"x_min":0,"x_max":0,"o":"m 0 292 l 1389 292 l 1389 367 l 0 367 z "},"Æ":{"ha":1286,"x_min":0,"x_max":0,"o":"m -7 0 l 90 0 l 261 261 l 694 261 l 694 0 l 1204 0 l 1204 83 l 786 83 l 786 467 l 1169 467 l 1169 550 l 786 550 l 786 900 l 1193 900 l 1193 983 l 633 983 z m 694 344 l 315 344 l 678 900 l 694 900 z "},"ª":{"ha":468,"x_min":0,"x_max":0,"o":"m 258 836 b 47 701 158 836 47 810 b 200 589 47 621 121 589 b 344 661 264 589 313 610 l 347 661 b 353 597 349 638 347 617 l 421 597 b 414 738 414 642 414 690 l 414 849 b 247 1000 414 961 357 1000 b 65 946 169 1000 110 982 l 101 893 b 232 942 140 925 176 942 b 347 849 321 942 344 908 l 347 836 z m 347 778 l 347 768 b 214 647 347 719 311 647 b 114 704 164 647 114 671 b 294 778 114 765 215 778 z "},"Ł":{"ha":694,"x_min":0,"x_max":0,"o":"m 135 0 l 685 0 l 685 83 l 226 83 l 226 400 l 526 663 l 526 749 l 226 486 l 226 983 l 135 983 l 135 410 l 35 322 l 35 232 l 135 321 z "},"Ø":{"ha":1158,"x_min":0,"x_max":0,"o":"m 94 21 l 143 -22 l 247 90 b 579 -25 333 17 447 -25 b 1088 492 879 -25 1088 192 b 951 856 1088 639 1038 765 l 1056 968 l 1008 1011 l 906 899 b 579 1008 819 968 708 1008 b 71 492 279 1008 71 792 b 200 135 71 349 118 225 z m 261 200 b 163 492 197 275 163 376 b 579 925 163 736 322 925 b 846 835 686 925 776 892 z m 892 790 b 996 492 958 715 996 610 b 579 58 996 247 836 58 b 306 154 468 58 375 93 z "},"Œ":{"ha":1311,"x_min":0,"x_max":0,"o":"m 807 467 l 1194 467 l 1194 550 l 807 550 l 807 900 l 1218 900 l 1218 983 l 618 983 b 82 492 343 983 82 817 b 574 0 82 194 310 0 l 1229 0 l 1229 83 l 807 83 z m 715 83 l 599 83 b 174 492 438 83 174 186 b 607 900 174 778 413 900 l 715 900 z "},"º":{"ha":536,"x_min":0,"x_max":0,"o":"m 47 794 b 267 589 47 674 133 589 b 489 794 394 589 489 674 b 267 1000 489 919 394 1000 b 47 794 133 1000 47 915 z m 114 794 b 267 942 114 872 178 942 b 422 794 361 942 422 878 b 267 647 422 714 356 647 b 114 794 176 647 114 717 z "},"æ":{"ha":1183,"x_min":0,"x_max":0,"o":"m 544 375 l 385 375 b 75 174 122 375 75 256 b 301 -17 75 38 192 -17 b 583 142 424 -17 529 28 b 836 -17 629 31 724 -17 b 1100 114 954 -17 1028 19 l 1035 161 b 850 58 994 97 929 58 b 628 300 700 58 622 168 l 1122 300 l 1122 349 b 832 658 1122 568 988 658 b 597 525 743 658 644 613 b 347 658 549 626 464 658 b 103 568 264 658 164 626 l 151 511 b 347 583 208 560 272 583 b 544 388 485 583 544 513 z m 544 300 b 304 58 544 168 476 58 b 158 178 235 58 158 99 b 382 300 158 217 186 300 z m 628 375 b 835 583 628 489 707 583 b 1039 375 976 583 1038 490 z "},"ı":{"ha":333,"x_min":0,"x_max":0,"o":"m 125 0 l 208 0 l 208 642 l 125 642 z "},"ł":{"ha":333,"x_min":0,"x_max":0,"o":"m 125 0 l 208 0 l 208 535 l 325 653 l 325 746 l 208 626 l 208 1050 l 125 1050 l 125 543 l 8 425 l 8 332 l 125 450 z "},"ø":{"ha":825,"x_min":0,"x_max":0,"o":"m 54 3 l 99 -37 l 193 58 b 413 -17 249 11 325 -17 b 750 321 610 -17 750 125 b 672 543 750 408 722 486 l 771 642 l 726 682 l 631 585 b 413 658 574 631 499 658 b 75 321 215 658 75 517 b 151 101 75 235 101 160 z m 208 160 b 158 321 175 203 158 260 b 413 583 158 465 256 583 b 574 528 478 583 532 563 z m 615 485 b 667 321 649 443 667 385 b 413 58 667 176 569 58 b 250 115 346 58 290 79 z "},"œ":{"ha":1260,"x_min":0,"x_max":0,"o":"m 704 375 b 911 583 704 489 783 583 b 1115 375 1053 583 1114 490 z m 1199 300 l 1199 349 b 908 658 1199 568 1064 658 b 657 499 767 658 689 574 b 381 658 633 543 565 658 b 61 321 197 658 61 517 b 381 -17 61 125 197 -17 b 657 142 503 -17 604 39 l 660 142 b 913 -17 706 31 800 -17 b 1176 114 1031 -17 1104 19 l 1111 161 b 926 58 1071 97 1006 58 b 704 300 776 58 699 168 z m 144 321 b 383 583 144 458 236 583 b 621 321 531 583 621 465 b 383 58 621 176 531 58 b 144 321 236 58 144 183 z "},"ß":{"ha":824,"x_min":0,"x_max":0,"o":"m 369 561 l 399 561 b 661 306 536 561 661 481 b 410 67 661 160 558 67 b 336 79 385 67 360 69 l 336 -1 b 401 -8 358 -7 379 -8 b 744 307 600 -8 744 106 b 524 601 744 522 626 582 l 524 604 b 661 818 607 629 661 710 b 404 1067 661 978 549 1067 b 111 742 214 1067 111 931 l 111 0 l 194 0 l 194 729 b 397 992 194 871 246 992 b 578 815 501 992 578 931 b 390 636 578 706 501 636 l 369 636 z "},"¹":{"ha":469,"x_min":0,"x_max":0,"o":"m 246 401 l 321 401 l 321 992 l 246 992 l 93 872 l 128 825 l 246 917 z "},"¬":{"ha":925,"x_min":0,"x_max":0,"o":"m 750 186 l 817 186 l 817 554 l 108 554 l 108 488 l 750 488 z "},"µ":{"ha":772,"x_min":0,"x_max":0,"o":"m 654 642 l 571 642 l 571 321 b 349 58 571 144 472 58 b 188 264 217 58 188 160 l 188 642 l 104 642 l 104 -317 l 186 -317 l 186 36 b 349 -17 224 3 274 -17 b 568 113 453 -17 535 42 l 572 113 b 578 0 575 100 576 47 l 661 0 b 654 181 661 33 654 133 z "},"™":{"ha":1375,"x_min":0,"x_max":0,"o":"m 301 411 l 376 411 l 376 917 l 561 917 l 561 983 l 117 983 l 117 917 l 301 917 z m 664 411 l 739 411 l 739 913 l 742 913 l 939 411 l 983 411 l 1181 913 l 1183 913 l 1183 411 l 1258 411 l 1258 983 l 1143 983 l 964 528 l 783 983 l 664 983 z "},"Ð":{"ha":1029,"x_min":0,"x_max":0,"o":"m 214 900 l 403 900 b 867 492 664 900 867 774 b 403 83 867 210 664 83 l 214 83 l 214 475 l 572 475 l 572 550 l 214 550 z m 122 0 l 426 0 b 958 492 938 0 958 419 b 426 983 958 564 938 983 l 122 983 l 122 550 l 14 550 l 14 475 l 122 475 z "},"½":{"ha":1081,"x_min":0,"x_max":0,"o":"m 192 401 l 267 401 l 267 992 l 192 992 l 39 872 l 74 825 l 192 917 z m 147 -8 l 210 -47 l 844 992 l 781 1031 z m 636 0 l 1042 0 l 1042 67 l 736 67 l 913 235 b 1040 447 978 297 1040 357 b 851 599 1040 543 958 599 b 658 456 781 599 683 563 l 729 450 b 849 532 743 492 778 532 b 965 444 922 532 965 496 b 875 293 965 381 925 342 l 636 60 z "},"±":{"ha":925,"x_min":0,"x_max":0,"o":"m 108 454 l 425 454 l 425 200 l 492 200 l 492 454 l 817 454 l 817 521 l 492 521 l 492 775 l 425 775 l 425 521 l 108 521 z m 114 67 l 811 67 l 811 133 l 114 133 z "},"Þ":{"ha":797,"x_min":0,"x_max":0,"o":"m 135 0 l 226 0 l 226 250 l 439 250 b 735 507 593 250 735 329 b 418 767 735 713 557 767 l 225 767 l 225 983 l 135 983 z m 226 683 l 429 683 b 643 507 535 683 643 633 b 435 333 643 378 539 333 l 226 333 z "},"¼":{"ha":1081,"x_min":0,"x_max":0,"o":"m 867 0 l 942 0 l 942 142 l 1031 142 l 1031 208 l 942 208 l 942 589 l 860 589 l 603 204 l 603 142 l 867 142 z m 867 208 l 678 208 l 864 489 l 867 489 z m 203 401 l 278 401 l 278 992 l 203 992 l 50 872 l 85 825 l 203 917 z m 160 -8 l 222 -47 l 857 992 l 793 1031 z "},"÷":{"ha":925,"x_min":0,"x_max":0,"o":"m 108 388 l 817 388 l 817 454 l 108 454 z m 392 635 b 463 564 392 596 424 564 b 533 635 501 564 533 596 b 463 706 533 674 501 706 b 392 635 424 706 392 674 z m 392 207 b 463 136 392 168 424 136 b 533 207 501 136 533 168 b 463 278 533 246 501 278 b 392 207 424 276 392 247 z "},"¦":{"ha":308,"x_min":0,"x_max":0,"o":"m 121 938 l 121 451 l 188 451 l 188 938 z m 121 243 l 121 -243 l 188 -243 l 188 243 z "},"°":{"ha":556,"x_min":0,"x_max":0,"o":"m 278 600 b 478 801 389 600 478 689 b 278 1000 478 913 389 1000 b 78 801 167 1000 78 913 b 278 600 78 689 167 600 z m 278 667 b 144 800 204 667 144 726 b 278 933 144 874 204 933 b 411 800 351 933 411 874 b 278 667 411 726 351 667 z "},"þ":{"ha":849,"x_min":0,"x_max":0,"o":"m 93 -317 l 176 -317 l 176 113 l 179 113 b 436 -17 231 24 340 -17 b 774 321 633 -17 774 125 b 436 658 774 517 633 658 b 179 529 340 658 231 618 l 176 529 l 176 1050 l 93 1050 z m 168 321 b 436 583 168 465 285 583 b 690 321 593 583 690 465 b 436 58 690 176 593 58 b 168 321 285 58 168 176 z "},"¾":{"ha":1081,"x_min":0,"x_max":0,"o":"m 889 0 l 964 0 l 964 142 l 1053 142 l 1053 208 l 964 208 l 964 589 l 882 589 l 625 204 l 625 142 l 889 142 z m 886 208 l 697 208 l 883 489 l 886 489 z m 168 678 l 192 678 b 349 565 274 678 349 653 b 222 460 349 510 285 460 b 94 542 150 460 114 492 l 28 517 b 222 393 63 429 132 393 b 424 561 336 393 424 457 b 293 710 424 636 374 699 l 293 713 b 407 850 357 733 407 786 b 225 1000 407 942 326 1000 b 49 899 146 1000 86 958 l 103 864 b 225 933 128 906 172 933 b 332 849 290 933 332 896 b 200 744 332 771 257 749 l 168 744 z m 231 -8 l 293 -47 l 928 992 l 864 1031 z "},"²":{"ha":469,"x_min":0,"x_max":0,"o":"m 32 401 l 438 401 l 438 468 l 132 468 l 308 636 b 436 849 374 699 436 758 b 247 1000 436 944 354 1000 b 54 857 176 1000 79 964 l 125 851 b 244 933 139 893 174 933 b 361 846 318 933 361 897 b 271 694 361 782 321 743 l 32 461 z "},"®":{"ha":1111,"x_min":0,"x_max":0,"o":"m 443 457 l 550 457 l 728 196 l 813 196 l 635 457 b 785 626 715 471 785 517 b 597 792 785 733 732 792 l 368 792 l 368 196 l 443 196 z m 443 725 l 576 725 b 710 626 640 725 710 703 b 539 524 710 528 621 524 l 443 524 z m 39 492 b 556 -25 39 207 271 -25 b 1072 492 840 -25 1072 207 b 556 1008 1072 776 840 1008 b 39 492 271 1008 39 776 z m 114 492 b 556 933 114 736 311 933 b 997 492 800 933 997 736 b 556 50 997 247 800 50 b 114 492 311 50 114 247 z "},"−":{"ha":925,"x_min":0,"x_max":0,"o":"m 108 388 l 817 388 l 817 454 l 108 454 z "},"ð":{"ha":825,"x_min":0,"x_max":0,"o":"m 207 839 l 250 793 l 399 872 b 622 585 467 811 553 708 l 619 582 b 413 658 560 636 490 658 b 75 321 215 658 75 517 b 413 -17 75 125 215 -17 b 750 356 610 -17 750 125 b 472 913 750 644 553 839 l 619 992 l 569 1033 l 425 956 b 293 1067 389 992 335 1036 l 221 1025 b 351 917 256 1000 308 956 z m 158 321 b 413 583 158 465 256 583 b 667 321 569 583 667 465 b 413 58 667 176 569 58 b 158 321 256 58 158 176 z "},"×":{"ha":925,"x_min":0,"x_max":0,"o":"m 189 743 l 142 696 l 417 421 l 139 146 l 188 99 l 464 375 l 738 99 l 785 146 l 510 421 l 786 696 l 740 743 l 464 468 z "},"³":{"ha":469,"x_min":0,"x_max":0,"o":"m 176 678 l 200 678 b 357 565 282 678 357 653 b 231 460 357 510 293 460 b 103 542 158 460 122 492 l 38 517 b 231 393 71 429 140 393 b 432 561 344 393 432 457 b 301 710 432 636 382 699 l 301 713 b 415 850 365 733 415 786 b 233 1000 415 942 335 1000 b 57 899 154 1000 94 958 l 111 864 b 233 933 136 906 181 933 b 340 849 299 933 340 896 b 208 744 340 771 265 744 l 176 744 z "},"©":{"ha":1111,"x_min":0,"x_max":0,"o":"m 825 599 b 568 810 807 735 699 810 b 271 492 379 810 271 675 b 568 174 271 308 379 174 b 825 385 699 174 807 249 l 750 385 b 569 240 736 308 671 240 b 346 492 428 240 346 356 b 569 743 346 628 428 743 b 750 599 671 742 733 674 z m 39 492 b 556 -25 39 207 271 -25 b 1072 492 840 -25 1072 207 b 556 1008 1072 776 840 1008 b 39 492 271 1008 39 776 z m 114 492 b 556 933 114 736 311 933 b 997 492 800 933 997 736 b 556 50 997 247 800 50 b 114 492 311 50 114 247 z "},"Á":{"ha":951,"x_min":0,"x_max":0,"o":"m 7 0 l 103 0 l 214 261 l 735 261 l 842 0 l 944 0 l 531 983 l 436 983 z m 701 344 l 250 344 l 479 883 z m 396 1044 l 465 1044 l 651 1244 l 540 1244 z "},"Â":{"ha":951,"x_min":0,"x_max":0,"o":"m 7 0 l 103 0 l 214 261 l 735 261 l 842 0 l 944 0 l 531 983 l 436 983 z m 701 344 l 250 344 l 479 883 z m 278 1044 l 360 1044 l 472 1194 l 585 1044 l 675 1044 l 525 1244 l 428 1244 z "},"Ä":{"ha":951,"x_min":0,"x_max":0,"o":"m 7 0 l 103 0 l 214 261 l 735 261 l 842 0 l 944 0 l 531 983 l 436 983 z m 701 344 l 250 344 l 479 883 z m 278 1167 b 344 1100 278 1129 307 1100 b 411 1167 382 1100 411 1129 b 344 1233 411 1204 382 1233 b 278 1167 307 1233 278 1204 z m 542 1167 b 608 1100 542 1129 571 1100 b 675 1167 646 1100 675 1129 b 608 1233 675 1204 646 1233 b 542 1167 571 1233 542 1204 z "},"À":{"ha":951,"x_min":0,"x_max":0,"o":"m 7 0 l 103 0 l 214 261 l 735 261 l 842 0 l 944 0 l 531 983 l 436 983 z m 701 344 l 250 344 l 479 883 z m 413 1244 l 301 1244 l 488 1044 l 557 1044 z "},"Å":{"ha":951,"x_min":0,"x_max":0,"o":"m 7 0 l 103 0 l 214 261 l 735 261 l 842 0 l 944 0 l 531 983 l 436 983 z m 701 344 l 250 344 l 479 883 z m 347 1163 b 478 1031 347 1092 406 1031 b 606 1161 549 1031 606 1093 b 478 1294 606 1231 550 1294 b 347 1163 406 1294 347 1233 z m 556 1163 b 476 1081 556 1117 522 1081 b 397 1161 432 1081 397 1115 b 476 1244 397 1207 431 1244 b 556 1163 522 1244 556 1208 z "},"Ã":{"ha":951,"x_min":0,"x_max":0,"o":"m 7 0 l 103 0 l 214 261 l 735 261 l 842 0 l 944 0 l 531 983 l 436 983 z m 701 344 l 250 344 l 479 883 z m 310 1068 b 381 1135 318 1101 338 1135 b 472 1101 408 1135 439 1117 b 576 1068 506 1086 540 1068 b 660 1114 614 1068 640 1086 b 693 1210 678 1140 689 1176 l 643 1210 b 576 1143 636 1176 617 1143 b 489 1175 550 1143 519 1160 b 385 1210 457 1192 422 1210 b 297 1163 347 1210 318 1190 b 260 1068 276 1136 264 1100 z "},"Ç":{"ha":978,"x_min":0,"x_max":0,"o":"m 869 211 b 579 58 800 106 678 58 b 163 492 322 58 163 247 b 579 925 163 736 322 925 b 843 792 678 925 782 883 l 918 854 b 579 1008 832 964 713 1008 b 71 492 279 1008 71 792 b 494 -18 71 221 242 17 l 419 -122 l 442 -143 b 503 -132 460 -136 479 -132 b 581 -190 539 -132 581 -149 b 493 -250 581 -233 529 -250 b 388 -226 453 -250 419 -243 l 368 -271 b 500 -300 410 -290 454 -300 b 656 -182 572 -300 656 -265 b 540 -82 656 -115 600 -82 b 497 -92 522 -82 510 -85 l 494 -89 l 542 -24 b 579 -25 554 -25 567 -25 b 944 154 724 -25 851 26 z "},"É":{"ha":824,"x_min":0,"x_max":0,"o":"m 135 0 l 758 0 l 758 83 l 226 83 l 226 467 l 704 467 l 704 550 l 226 550 l 226 900 l 736 900 l 736 983 l 135 983 z m 332 1044 l 401 1044 l 588 1244 l 476 1244 z "},"Ê":{"ha":824,"x_min":0,"x_max":0,"o":"m 135 0 l 758 0 l 758 83 l 226 83 l 226 467 l 704 467 l 704 550 l 226 550 l 226 900 l 736 900 l 736 983 l 135 983 z m 214 1044 l 296 1044 l 408 1194 l 521 1044 l 611 1044 l 461 1244 l 364 1244 z "},"Ë":{"ha":824,"x_min":0,"x_max":0,"o":"m 135 0 l 758 0 l 758 83 l 226 83 l 226 467 l 704 467 l 704 550 l 226 550 l 226 900 l 736 900 l 736 983 l 135 983 z m 214 1167 b 281 1100 214 1129 243 1100 b 347 1167 318 1100 347 1129 b 281 1233 347 1204 318 1233 b 214 1167 243 1233 214 1204 z m 478 1167 b 544 1100 478 1129 507 1100 b 611 1167 582 1100 611 1129 b 544 1233 611 1204 582 1233 b 478 1167 507 1233 478 1204 z "},"È":{"ha":824,"x_min":0,"x_max":0,"o":"m 135 0 l 758 0 l 758 83 l 226 83 l 226 467 l 704 467 l 704 550 l 226 550 l 226 900 l 736 900 l 736 983 l 135 983 z m 349 1244 l 238 1244 l 424 1044 l 493 1044 z "},"Í":{"ha":361,"x_min":0,"x_max":0,"o":"m 135 0 l 226 0 l 226 983 l 135 983 z m 100 1044 l 169 1044 l 356 1244 l 244 1244 z "},"Î":{"ha":361,"x_min":0,"x_max":0,"o":"m 135 0 l 226 0 l 226 983 l 135 983 z m -18 1044 l 64 1044 l 176 1194 l 289 1044 l 379 1044 l 229 1244 l 132 1244 z "},"Ï":{"ha":361,"x_min":0,"x_max":0,"o":"m 135 0 l 226 0 l 226 983 l 135 983 z m -18 1167 b 49 1100 -18 1129 11 1100 b 115 1167 86 1100 115 1129 b 49 1233 115 1204 86 1233 b -18 1167 11 1233 -18 1204 z m 246 1167 b 313 1100 246 1129 275 1100 b 379 1167 350 1100 379 1129 b 313 1233 379 1204 350 1233 b 246 1167 275 1233 246 1204 z "},"Ì":{"ha":361,"x_min":0,"x_max":0,"o":"m 135 0 l 226 0 l 226 983 l 135 983 z m 117 1244 l 6 1244 l 192 1044 l 261 1044 z "},"Ñ":{"ha":1081,"x_min":0,"x_max":0,"o":"m 135 0 l 226 0 l 226 861 l 229 861 l 828 0 l 946 0 l 946 983 l 854 983 l 854 122 l 851 122 l 253 983 l 135 983 z m 374 1068 b 444 1135 382 1101 401 1135 b 536 1101 472 1135 503 1117 b 640 1068 569 1086 604 1068 b 724 1114 678 1068 704 1086 b 757 1210 742 1140 753 1176 l 707 1210 b 640 1143 700 1176 681 1143 b 553 1175 614 1143 583 1160 b 449 1210 521 1192 486 1210 b 361 1163 411 1210 382 1190 b 324 1068 340 1136 328 1100 z "},"Ó":{"ha":1158,"x_min":0,"x_max":0,"o":"m 71 492 b 579 -25 71 192 279 -25 b 1088 492 879 -25 1088 192 b 579 1008 1088 792 879 1008 b 71 492 279 1008 71 792 z m 163 492 b 579 925 163 736 322 925 b 996 492 836 925 996 736 b 579 58 996 247 836 58 b 163 492 322 58 163 247 z m 499 1044 l 568 1044 l 754 1244 l 643 1244 z "},"Ô":{"ha":1158,"x_min":0,"x_max":0,"o":"m 71 492 b 579 -25 71 192 279 -25 b 1088 492 879 -25 1088 192 b 579 1008 1088 792 879 1008 b 71 492 279 1008 71 792 z m 163 492 b 579 925 163 736 322 925 b 996 492 836 925 996 736 b 579 58 996 247 836 58 b 163 492 322 58 163 247 z m 381 1044 l 463 1044 l 575 1194 l 688 1044 l 778 1044 l 628 1244 l 531 1244 z "},"Ö":{"ha":1158,"x_min":0,"x_max":0,"o":"m 71 492 b 579 -25 71 192 279 -25 b 1088 492 879 -25 1088 192 b 579 1008 1088 792 879 1008 b 71 492 279 1008 71 792 z m 163 492 b 579 925 163 736 322 925 b 996 492 836 925 996 736 b 579 58 996 247 836 58 b 163 492 322 58 163 247 z m 381 1167 b 447 1100 381 1129 410 1100 b 514 1167 485 1100 514 1129 b 447 1233 514 1204 485 1233 b 381 1167 410 1233 381 1204 z m 644 1167 b 711 1100 644 1129 674 1100 b 778 1167 749 1100 778 1129 b 711 1233 778 1204 749 1233 b 644 1167 674 1233 644 1204 z "},"Ò":{"ha":1158,"x_min":0,"x_max":0,"o":"m 71 492 b 579 -25 71 192 279 -25 b 1088 492 879 -25 1088 192 b 579 1008 1088 792 879 1008 b 71 492 279 1008 71 792 z m 163 492 b 579 925 163 736 322 925 b 996 492 836 925 996 736 b 579 58 996 247 836 58 b 163 492 322 58 163 247 z m 515 1244 l 404 1244 l 590 1044 l 660 1044 z "},"Õ":{"ha":1158,"x_min":0,"x_max":0,"o":"m 71 492 b 579 -25 71 192 279 -25 b 1088 492 879 -25 1088 192 b 579 1008 1088 792 879 1008 b 71 492 279 1008 71 792 z m 163 492 b 579 925 163 736 322 925 b 996 492 836 925 996 736 b 579 58 996 247 836 58 b 163 492 322 58 163 247 z m 413 1068 b 483 1135 421 1101 440 1135 b 575 1101 511 1135 542 1117 b 679 1068 608 1086 643 1068 b 763 1114 717 1068 743 1086 b 796 1210 781 1140 792 1176 l 746 1210 b 679 1143 739 1176 719 1143 b 592 1175 653 1143 622 1160 b 488 1210 560 1192 525 1210 b 400 1163 450 1210 421 1190 b 363 1068 379 1136 367 1100 z "},"Š":{"ha":772,"x_min":0,"x_max":0,"o":"m 74 124 b 393 -25 150 17 264 -25 b 699 251 553 -25 699 74 b 192 739 699 621 192 443 b 413 925 192 864 294 925 b 604 828 497 925 558 892 l 683 885 b 415 1008 617 972 522 1008 b 100 739 250 1008 100 914 b 607 251 100 365 607 526 b 386 58 607 133 510 58 b 161 182 289 58 210 100 z m 579 1244 l 504 1244 l 385 1086 l 269 1244 l 183 1244 l 335 1044 l 432 1044 z "},"Ú":{"ha":950,"x_min":0,"x_max":0,"o":"m 833 983 l 742 983 l 742 400 b 475 58 742 260 704 58 b 208 400 246 58 208 260 l 208 983 l 117 983 l 117 376 b 475 -25 117 167 207 -25 b 833 376 743 -25 833 167 z m 394 1044 l 464 1044 l 650 1244 l 539 1244 z "},"Û":{"ha":950,"x_min":0,"x_max":0,"o":"m 833 983 l 742 983 l 742 400 b 475 58 742 260 704 58 b 208 400 246 58 208 260 l 208 983 l 117 983 l 117 376 b 475 -25 117 167 207 -25 b 833 376 743 -25 833 167 z m 276 1044 l 358 1044 l 471 1194 l 583 1044 l 674 1044 l 524 1244 l 426 1244 z "},"Ü":{"ha":950,"x_min":0,"x_max":0,"o":"m 833 983 l 742 983 l 742 400 b 475 58 742 260 704 58 b 208 400 246 58 208 260 l 208 983 l 117 983 l 117 376 b 475 -25 117 167 207 -25 b 833 376 743 -25 833 167 z m 276 1167 b 343 1100 276 1129 306 1100 b 410 1167 381 1100 410 1129 b 343 1233 410 1204 381 1233 b 276 1167 306 1233 276 1204 z m 540 1167 b 607 1100 540 1129 569 1100 b 674 1167 644 1100 674 1129 b 607 1233 674 1204 644 1233 b 540 1167 569 1233 540 1204 z "},"Ù":{"ha":950,"x_min":0,"x_max":0,"o":"m 833 983 l 742 983 l 742 400 b 475 58 742 260 704 58 b 208 400 246 58 208 260 l 208 983 l 117 983 l 117 376 b 475 -25 117 167 207 -25 b 833 376 743 -25 833 167 z m 411 1244 l 300 1244 l 486 1044 l 556 1044 z "},"Ý":{"ha":797,"x_min":0,"x_max":0,"o":"m 353 0 l 444 0 l 444 424 l 806 983 l 703 983 l 399 517 l 101 983 l -8 983 l 353 424 z m 318 1044 l 388 1044 l 574 1244 l 463 1244 z "},"Ÿ":{"ha":797,"x_min":0,"x_max":0,"o":"m 353 0 l 444 0 l 444 424 l 806 983 l 703 983 l 399 517 l 101 983 l -8 983 l 353 424 z m 200 1167 b 267 1100 200 1129 229 1100 b 333 1167 304 1100 333 1129 b 267 1233 333 1204 304 1233 b 200 1167 229 1233 200 1204 z m 464 1167 b 531 1100 464 1129 493 1100 b 597 1167 568 1100 597 1129 b 531 1233 597 1204 568 1233 b 464 1167 493 1233 464 1204 z "},"Ž":{"ha":772,"x_min":0,"x_max":0,"o":"m 32 0 l 740 0 l 740 83 l 146 83 l 725 908 l 725 983 l 40 983 l 40 900 l 607 900 l 32 72 z m 579 1244 l 504 1244 l 385 1086 l 269 1244 l 183 1244 l 335 1044 l 432 1044 z "},"á":{"ha":721,"x_min":0,"x_max":0,"o":"m 610 426 b 354 658 610 589 510 658 b 110 568 271 658 171 626 l 158 511 b 354 583 215 560 279 583 b 535 428 457 583 535 539 l 535 389 l 438 389 b 82 174 311 389 82 369 b 308 -17 82 38 199 -17 b 533 104 417 -17 486 22 l 536 104 b 544 0 536 68 539 32 l 622 0 b 610 269 613 74 610 144 z m 535 322 l 535 279 b 311 58 535 172 489 58 b 165 178 242 58 165 99 b 443 322 165 288 304 322 z m 281 783 l 350 783 l 536 983 l 425 983 z "},"â":{"ha":721,"x_min":0,"x_max":0,"o":"m 610 426 b 354 658 610 589 510 658 b 110 568 271 658 171 626 l 158 511 b 354 583 215 560 279 583 b 535 428 457 583 535 539 l 535 389 l 438 389 b 82 174 311 389 82 369 b 308 -17 82 38 199 -17 b 533 104 417 -17 486 22 l 536 104 b 544 0 536 68 539 32 l 622 0 b 610 269 613 74 610 144 z m 535 322 l 535 279 b 311 58 535 172 489 58 b 165 178 242 58 165 99 b 443 322 165 288 304 322 z m 163 783 l 244 783 l 357 933 l 469 783 l 560 783 l 410 983 l 313 983 z "},"ä":{"ha":721,"x_min":0,"x_max":0,"o":"m 610 426 b 354 658 610 589 510 658 b 110 568 271 658 171 626 l 158 511 b 354 583 215 560 279 583 b 535 428 457 583 535 539 l 535 389 l 438 389 b 82 174 311 389 82 369 b 308 -17 82 38 199 -17 b 533 104 417 -17 486 22 l 536 104 b 544 0 536 68 539 32 l 622 0 b 610 269 613 74 610 144 z m 535 322 l 535 279 b 311 58 535 172 489 58 b 165 178 242 58 165 99 b 443 322 165 288 304 322 z m 163 906 b 229 839 163 868 192 839 b 296 906 267 839 296 868 b 229 972 296 943 267 972 b 163 906 192 972 163 943 z m 426 906 b 493 839 426 868 456 839 b 560 906 531 839 560 868 b 493 972 560 943 531 972 b 426 906 456 972 426 943 z "},"à":{"ha":721,"x_min":0,"x_max":0,"o":"m 610 426 b 354 658 610 589 510 658 b 110 568 271 658 171 626 l 158 511 b 354 583 215 560 279 583 b 535 428 457 583 535 539 l 535 389 l 438 389 b 82 174 311 389 82 369 b 308 -17 82 38 199 -17 b 533 104 417 -17 486 22 l 536 104 b 544 0 536 68 539 32 l 622 0 b 610 269 613 74 610 144 z m 535 322 l 535 279 b 311 58 535 172 489 58 b 165 178 242 58 165 99 b 443 322 165 288 304 322 z m 297 983 l 186 983 l 372 783 l 442 783 z "},"å":{"ha":721,"x_min":0,"x_max":0,"o":"m 610 426 b 354 658 610 589 510 658 b 110 568 271 658 171 626 l 158 511 b 354 583 215 560 279 583 b 535 428 457 583 535 539 l 535 389 l 438 389 b 82 174 311 389 82 369 b 308 -17 82 38 199 -17 b 533 104 417 -17 486 22 l 536 104 b 544 0 536 68 539 32 l 622 0 b 610 269 613 74 610 144 z m 535 322 l 535 279 b 311 58 535 172 489 58 b 165 178 242 58 165 99 b 443 322 165 288 304 322 z m 232 901 b 363 769 232 831 290 769 b 490 900 433 769 490 832 b 363 1033 490 969 435 1033 b 232 901 290 1033 232 972 z m 440 901 b 361 819 440 856 407 819 b 282 900 317 819 282 854 b 361 983 282 946 315 983 b 440 901 407 983 440 947 z "},"ã":{"ha":721,"x_min":0,"x_max":0,"o":"m 610 426 b 354 658 610 589 510 658 b 110 568 271 658 171 626 l 158 511 b 354 583 215 560 279 583 b 535 428 457 583 535 539 l 535 389 l 438 389 b 82 174 311 389 82 369 b 308 -17 82 38 199 -17 b 533 104 417 -17 486 22 l 536 104 b 544 0 536 68 539 32 l 622 0 b 610 269 613 74 610 144 z m 535 322 l 535 279 b 311 58 535 172 489 58 b 165 178 242 58 165 99 b 443 322 165 288 304 322 z m 194 807 b 265 874 203 840 222 874 b 357 840 293 874 324 856 b 461 807 390 825 425 807 b 578 949 535 807 569 881 l 528 949 b 461 882 521 915 501 882 b 374 914 435 882 404 899 b 269 949 342 931 307 949 b 182 901 232 949 203 929 b 144 807 161 875 149 839 z "},"ç":{"ha":668,"x_min":0,"x_max":0,"o":"m 585 147 b 413 58 542 94 482 58 b 158 321 256 58 158 176 b 413 583 158 465 256 583 b 585 497 479 583 536 550 l 651 547 b 413 658 589 618 506 658 b 75 321 215 658 75 517 b 344 -10 75 147 185 17 l 265 -122 l 288 -143 b 349 -132 306 -136 325 -132 b 426 -190 385 -132 426 -149 b 339 -250 426 -233 375 -250 b 233 -226 299 -250 265 -243 l 214 -271 b 346 -300 256 -290 300 -300 b 501 -182 418 -300 501 -265 b 386 -82 501 -115 446 -82 b 343 -92 368 -82 356 -85 l 340 -89 l 393 -15 b 413 -17 400 -17 406 -17 b 649 94 504 -17 586 19 z "},"é":{"ha":772,"x_min":0,"x_max":0,"o":"m 617 172 b 401 58 575 103 486 58 b 158 300 207 58 158 231 l 697 300 l 697 358 b 396 658 697 507 593 658 b 75 322 208 658 75 514 b 400 -17 75 124 204 -17 b 678 121 514 -17 613 24 z m 158 375 b 392 583 158 408 210 583 b 614 375 515 583 614 489 z m 306 783 l 375 783 l 561 983 l 450 983 z "},"ê":{"ha":772,"x_min":0,"x_max":0,"o":"m 617 172 b 401 58 575 103 486 58 b 158 300 207 58 158 231 l 697 300 l 697 358 b 396 658 697 507 593 658 b 75 322 208 658 75 514 b 400 -17 75 124 204 -17 b 678 121 514 -17 613 24 z m 158 375 b 392 583 158 408 210 583 b 614 375 515 583 614 489 z m 188 783 l 269 783 l 382 933 l 494 783 l 585 783 l 435 983 l 338 983 z "},"ë":{"ha":772,"x_min":0,"x_max":0,"o":"m 617 172 b 401 58 575 103 486 58 b 158 300 207 58 158 231 l 697 300 l 697 358 b 396 658 697 507 593 658 b 75 322 208 658 75 514 b 400 -17 75 124 204 -17 b 678 121 514 -17 613 24 z m 158 375 b 392 583 158 408 210 583 b 614 375 515 583 614 489 z m 188 906 b 254 839 188 868 217 839 b 321 906 292 839 321 868 b 254 972 321 943 292 972 b 188 906 217 972 188 943 z m 451 906 b 518 839 451 868 481 839 b 585 906 556 839 585 868 b 518 972 585 943 556 972 b 451 906 481 972 451 943 z "},"è":{"ha":772,"x_min":0,"x_max":0,"o":"m 617 172 b 401 58 575 103 486 58 b 158 300 207 58 158 231 l 697 300 l 697 358 b 396 658 697 507 593 658 b 75 322 208 658 75 514 b 400 -17 75 124 204 -17 b 678 121 514 -17 613 24 z m 158 375 b 392 583 158 408 210 583 b 614 375 515 583 614 489 z m 322 983 l 211 983 l 397 783 l 467 783 z "},"í":{"ha":333,"x_min":0,"x_max":0,"o":"m 125 0 l 208 0 l 208 642 l 125 642 z m 86 783 l 156 783 l 342 983 l 231 983 z "},"î":{"ha":333,"x_min":0,"x_max":0,"o":"m 125 0 l 208 0 l 208 642 l 125 642 z m -32 783 l 50 783 l 163 933 l 275 783 l 365 783 l 215 983 l 118 983 z "},"ï":{"ha":333,"x_min":0,"x_max":0,"o":"m 125 0 l 208 0 l 208 642 l 125 642 z m -32 906 b 35 839 -32 868 -3 839 b 101 906 72 839 101 868 b 35 972 101 943 72 972 b -32 906 -3 972 -32 943 z m 232 906 b 299 839 232 868 261 839 b 365 906 336 839 365 868 b 299 972 365 943 336 972 b 232 906 261 972 232 943 z "},"ì":{"ha":333,"x_min":0,"x_max":0,"o":"m 125 0 l 208 0 l 208 642 l 125 642 z m 103 983 l -8 983 l 178 783 l 247 783 z "},"ñ":{"ha":772,"x_min":0,"x_max":0,"o":"m 111 0 l 194 0 l 194 321 b 417 583 194 497 293 583 b 578 378 549 583 578 482 l 578 0 l 661 0 l 661 382 b 417 658 661 522 617 658 b 197 529 313 658 231 600 l 193 529 b 188 642 190 542 189 594 l 104 642 b 111 461 104 608 111 508 z m 219 807 b 290 874 228 840 247 874 b 382 840 318 874 349 856 b 486 807 415 825 450 807 b 603 949 560 807 594 881 l 553 949 b 486 882 546 915 526 882 b 399 914 460 882 429 899 b 294 949 367 931 332 949 b 207 901 257 949 228 929 b 169 807 186 875 174 839 z "},"ó":{"ha":825,"x_min":0,"x_max":0,"o":"m 75 321 b 413 -17 75 125 215 -17 b 750 321 610 -17 750 125 b 413 658 750 517 610 658 b 75 321 215 658 75 517 z m 158 321 b 413 583 158 465 256 583 b 667 321 569 583 667 465 b 413 58 667 176 569 58 b 158 321 256 58 158 176 z m 332 783 l 401 783 l 588 983 l 476 983 z "},"ô":{"ha":825,"x_min":0,"x_max":0,"o":"m 75 321 b 413 -17 75 125 215 -17 b 750 321 610 -17 750 125 b 413 658 750 517 610 658 b 75 321 215 658 75 517 z m 158 321 b 413 583 158 465 256 583 b 667 321 569 583 667 465 b 413 58 667 176 569 58 b 158 321 256 58 158 176 z m 214 783 l 296 783 l 408 933 l 521 783 l 611 783 l 461 983 l 364 983 z "},"ö":{"ha":825,"x_min":0,"x_max":0,"o":"m 75 321 b 413 -17 75 125 215 -17 b 750 321 610 -17 750 125 b 413 658 750 517 610 658 b 75 321 215 658 75 517 z m 158 321 b 413 583 158 465 256 583 b 667 321 569 583 667 465 b 413 58 667 176 569 58 b 158 321 256 58 158 176 z m 214 906 b 281 839 214 868 243 839 b 347 906 318 839 347 868 b 281 972 347 943 318 972 b 214 906 243 972 214 943 z m 478 906 b 544 839 478 868 507 839 b 611 906 582 839 611 868 b 544 972 611 943 582 972 b 478 906 507 972 478 943 z "},"ò":{"ha":825,"x_min":0,"x_max":0,"o":"m 75 321 b 413 -17 75 125 215 -17 b 750 321 610 -17 750 125 b 413 658 750 517 610 658 b 75 321 215 658 75 517 z m 158 321 b 413 583 158 465 256 583 b 667 321 569 583 667 465 b 413 58 667 176 569 58 b 158 321 256 58 158 176 z m 349 983 l 238 983 l 424 783 l 493 783 z "},"õ":{"ha":825,"x_min":0,"x_max":0,"o":"m 75 321 b 413 -17 75 125 215 -17 b 750 321 610 -17 750 125 b 413 658 750 517 610 658 b 75 321 215 658 75 517 z m 158 321 b 413 583 158 465 256 583 b 667 321 569 583 667 465 b 413 58 667 176 569 58 b 158 321 256 58 158 176 z m 246 807 b 317 874 254 840 274 874 b 408 840 344 874 375 856 b 513 807 442 825 476 807 b 629 949 586 807 621 881 l 579 949 b 513 882 572 915 553 882 b 425 914 486 882 456 899 b 321 949 393 931 358 949 b 233 901 283 949 254 929 b 196 807 213 875 200 839 z "},"š":{"ha":592,"x_min":0,"x_max":0,"o":"m 39 114 b 297 -17 89 25 188 -17 b 529 182 419 -17 529 50 b 149 481 529 442 149 307 b 285 583 149 547 225 583 b 436 493 360 583 404 551 l 511 538 b 285 658 469 619 389 658 b 65 474 179 658 65 599 b 446 176 65 229 446 353 b 299 58 446 103 371 58 b 113 164 224 58 147 96 z m 489 983 l 414 983 l 294 825 l 179 983 l 93 983 l 244 783 l 342 783 z "},"ú":{"ha":772,"x_min":0,"x_max":0,"o":"m 654 642 l 571 642 l 571 321 b 349 58 571 144 472 58 b 188 264 217 58 188 160 l 188 642 l 104 642 l 104 260 b 349 -17 104 119 149 -17 b 568 113 453 -17 535 42 l 572 113 b 578 0 575 100 576 47 l 661 0 b 654 181 661 33 654 133 z m 306 783 l 375 783 l 561 983 l 450 983 z "},"û":{"ha":772,"x_min":0,"x_max":0,"o":"m 654 642 l 571 642 l 571 321 b 349 58 571 144 472 58 b 188 264 217 58 188 160 l 188 642 l 104 642 l 104 260 b 349 -17 104 119 149 -17 b 568 113 453 -17 535 42 l 572 113 b 578 0 575 100 576 47 l 661 0 b 654 181 661 33 654 133 z m 188 783 l 269 783 l 382 933 l 494 783 l 585 783 l 435 983 l 338 983 z "},"ü":{"ha":772,"x_min":0,"x_max":0,"o":"m 654 642 l 571 642 l 571 321 b 349 58 571 144 472 58 b 188 264 217 58 188 160 l 188 642 l 104 642 l 104 260 b 349 -17 104 119 149 -17 b 568 113 453 -17 535 42 l 572 113 b 578 0 575 100 576 47 l 661 0 b 654 181 661 33 654 133 z m 188 906 b 254 839 188 868 217 839 b 321 906 292 839 321 868 b 254 972 321 943 292 972 b 188 906 217 972 188 943 z m 451 906 b 518 839 451 868 481 839 b 585 906 556 839 585 868 b 518 972 585 943 556 972 b 451 906 481 972 451 943 z "},"ù":{"ha":772,"x_min":0,"x_max":0,"o":"m 654 642 l 571 642 l 571 321 b 349 58 571 144 472 58 b 188 264 217 58 188 160 l 188 642 l 104 642 l 104 260 b 349 -17 104 119 149 -17 b 568 113 453 -17 535 42 l 572 113 b 578 0 575 100 576 47 l 661 0 b 654 181 661 33 654 133 z m 322 983 l 211 983 l 397 783 l 467 783 z "},"ý":{"ha":643,"x_min":0,"x_max":0,"o":"m 622 642 l 533 642 l 326 101 l 114 642 l 21 642 l 282 -3 l 224 -151 b 117 -258 204 -201 178 -258 b 42 -243 92 -258 65 -250 l 33 -321 b 115 -333 60 -328 88 -333 b 292 -199 207 -333 260 -281 z m 242 783 l 311 783 l 497 983 l 386 983 z "},"ÿ":{"ha":643,"x_min":0,"x_max":0,"o":"m 622 642 l 533 642 l 326 101 l 114 642 l 21 642 l 282 -3 l 224 -151 b 117 -258 204 -201 178 -258 b 42 -243 92 -258 65 -250 l 33 -321 b 115 -333 60 -328 88 -333 b 292 -199 207 -333 260 -281 z m 124 906 b 190 839 124 868 153 839 b 257 906 228 839 257 868 b 190 972 257 943 228 972 b 124 906 153 972 124 943 z m 388 906 b 454 839 388 868 417 839 b 521 906 492 839 521 868 b 454 972 521 943 492 972 b 388 906 417 972 388 943 z "},"ž":{"ha":592,"x_min":0,"x_max":0,"o":"m 38 0 l 554 0 l 554 75 l 154 75 l 538 592 l 538 642 l 57 642 l 57 567 l 422 567 l 38 50 z m 489 983 l 414 983 l 294 825 l 179 983 l 93 983 l 244 783 l 342 783 z "},"∆":{"ha":840,"x_min":0,"x_max":0,"o":"m 43 0 l 799 0 l 799 61 l 468 1007 l 376 1007 l 43 60 z m 125 68 l 336 661 b 417 900 360 738 403 844 l 422 900 b 510 642 439 833 486 718 l 711 68 z "},"Ω":{"ha":939,"x_min":0,"x_max":0,"o":"m 268 69 l 68 69 l 68 0 l 372 0 l 372 51 b 168 513 269 125 168 307 b 472 925 168 742 286 925 b 768 514 669 925 768 700 b 564 51 768 294 669 129 l 564 0 l 868 0 l 868 69 l 667 69 l 667 74 b 850 531 758 157 850 321 b 474 994 850 786 700 994 b 86 525 257 994 86 811 b 268 74 86 324 171 167 z "},"μ":{"ha":772,"x_min":0,"x_max":0,"o":"m 654 642 l 571 642 l 571 321 b 349 58 571 144 472 58 b 188 264 217 58 188 160 l 188 642 l 104 642 l 104 -317 l 186 -317 l 186 36 b 349 -17 224 3 274 -17 b 568 113 453 -17 535 42 l 572 113 b 578 0 575 100 576 47 l 661 0 b 654 181 661 33 654 133 z "},"π":{"ha":736,"x_min":0,"x_max":0,"o":"m 697 656 l 706 728 l 196 728 b 15 693 99 728 47 713 l 31 638 b 178 656 57 647 93 656 b 81 0 172 456 132 149 l 160 0 b 260 656 210 132 251 464 l 510 656 l 510 193 b 531 0 510 78 519 21 l 610 0 b 590 201 599 35 590 85 l 590 656 z "},"€":{"ha":722,"x_min":0,"x_max":0,"o":"m 682 110 l 624 153 b 444 54 590 97 522 54 b 213 338 308 54 236 167 l 514 338 l 531 403 l 206 403 b 203 482 204 428 203 454 b 208 593 203 522 204 558 l 578 593 l 594 658 l 218 658 b 485 925 253 835 347 925 b 646 879 553 925 606 901 l 671 957 b 474 1000 635 975 560 1000 b 131 658 329 1000 178 915 l 43 658 l 22 593 l 121 593 b 115 486 118 560 115 524 b 118 403 115 457 117 429 l 42 403 l 24 338 l 124 338 b 443 -17 154 108 264 -17 b 682 110 539 -17 636 39 z "},"ℓ":{"ha":628,"x_min":0,"x_max":0,"o":"m 553 188 b 374 56 521 128 458 56 b 222 297 293 56 224 121 l 222 343 b 496 863 386 511 496 683 b 339 1081 496 986 444 1081 b 146 753 247 1081 146 1007 l 146 361 b 42 264 114 328 79 297 l 69 214 b 146 281 94 236 122 261 l 146 261 b 358 -10 149 114 207 -10 b 594 154 461 -10 542 50 z m 222 760 b 338 1015 222 950 285 1015 b 438 860 410 1015 438 954 b 222 429 438 710 342 567 z "},"℮":{"ha":1226,"x_min":0,"x_max":0,"o":"m 1176 478 l 1176 492 b 611 1000 1176 772 924 1000 b 47 492 300 1000 47 772 b 611 -15 47 211 300 -15 b 1058 181 793 -15 957 63 l 976 181 b 613 13 888 79 758 13 b 267 163 478 13 356 71 b 256 194 260 172 256 183 l 256 471 b 263 478 256 476 258 478 z m 969 514 b 964 504 969 511 968 504 l 263 504 b 256 514 258 504 256 511 l 256 786 b 268 821 256 799 260 811 b 613 969 357 911 479 969 b 956 825 747 969 867 913 b 969 792 965 815 969 804 z "},"∂":{"ha":707,"x_min":0,"x_max":0,"o":"m 133 961 b 308 1028 171 994 228 1028 b 560 597 443 1028 560 860 b 558 535 560 579 560 551 l 557 535 b 338 667 535 579 460 667 b 58 308 193 667 58 528 b 304 -10 58 142 139 -10 b 639 571 525 -10 639 233 b 315 1097 639 938 478 1097 b 103 1022 214 1097 147 1060 z m 311 60 b 139 311 207 60 139 161 b 349 599 139 469 235 599 b 549 442 454 599 526 508 b 313 60 529 235 443 60 z "},"∏":{"ha":906,"x_min":0,"x_max":0,"o":"m 869 904 l 869 979 l 36 979 l 36 904 l 179 904 l 179 -135 l 258 -135 l 258 904 l 646 904 l 646 -135 l 725 -135 l 725 904 z "},"∑":{"ha":724,"x_min":0,"x_max":0,"o":"m 693 -135 l 693 -57 l 135 -57 l 135 -51 l 486 432 l 160 903 l 160 908 l 671 908 l 671 979 l 47 979 l 47 922 l 393 419 l 31 -78 l 31 -135 z "},"∙":{"ha":361,"x_min":0,"x_max":0,"o":"m 114 442 b 181 375 114 404 143 375 b 247 442 218 375 247 404 b 181 508 247 479 218 508 b 114 442 143 508 114 479 z "},"√":{"ha":749,"x_min":0,"x_max":0,"o":"m 743 1163 l 681 1163 l 431 -8 b 414 -106 425 -42 418 -81 l 413 -106 b 390 -4 408 -79 399 -39 l 215 529 l 46 465 l 64 413 l 163 449 l 378 -214 l 453 -214 z "},"∞":{"ha":1038,"x_min":0,"x_max":0,"o":"m 969 408 b 778 611 969 528 893 610 b 525 449 667 611 597 528 b 275 611 454 531 376 611 b 68 403 156 611 68 522 b 265 200 68 289 157 200 b 521 360 375 200 449 281 b 767 200 615 256 681 200 b 969 407 872 200 969 281 z m 274 254 b 128 401 186 254 129 319 b 264 557 128 483 178 557 b 489 401 363 557 428 475 b 275 254 432 342 364 254 z m 771 557 b 910 403 850 557 910 501 b 772 254 910 331 860 254 b 554 407 699 254 646 308 b 769 557 603 454 678 557 z "},"∫":{"ha":465,"x_min":0,"x_max":0,"o":"m 442 1174 b 372 1193 428 1183 399 1193 b 256 1140 329 1193 286 1176 b 186 850 204 1086 186 1000 b 203 128 186 633 203 351 b 157 -119 203 -19 183 -85 b 93 -154 140 -142 117 -154 b 35 -137 68 -154 46 -143 l 18 -199 b 99 -221 32 -208 67 -221 b 221 -158 147 -221 193 -200 b 281 126 253 -110 281 -29 b 263 842 281 349 263 625 b 310 1097 263 982 275 1054 b 378 1131 328 1119 356 1131 b 425 1115 394 1131 414 1124 z "},"≈":{"ha":746,"x_min":0,"x_max":0,"o":"m 646 588 b 519 486 608 521 574 486 b 392 532 469 486 438 508 b 242 589 356 551 307 589 b 61 463 165 589 101 542 l 100 433 b 233 535 133 488 171 535 b 358 489 276 535 317 513 b 514 432 422 453 461 432 b 682 558 597 432 649 489 z m 646 367 b 519 265 608 300 574 265 b 392 313 471 265 436 288 b 242 368 356 332 307 368 b 61 240 165 368 101 321 l 100 211 b 233 314 132 265 169 314 b 358 267 278 314 317 292 b 514 210 424 231 461 210 b 682 336 597 210 649 268 z "},"≠":{"ha":746,"x_min":0,"x_max":0,"o":"m 525 689 l 479 710 l 408 554 l 68 554 l 68 497 l 386 497 l 294 299 l 68 299 l 68 243 l 271 243 l 208 107 l 254 85 l 326 243 l 676 243 l 676 299 l 349 299 l 440 497 l 676 497 l 676 554 l 464 554 z "},"≤":{"ha":746,"x_min":0,"x_max":0,"o":"m 672 142 l 672 213 l 139 476 l 139 479 l 672 742 l 672 813 l 76 507 l 76 447 z m 676 26 l 676 85 l 68 85 l 68 26 z "},"≥":{"ha":746,"x_min":0,"x_max":0,"o":"m 78 813 l 78 742 l 610 478 l 610 475 l 78 213 l 78 142 l 674 447 l 674 507 z m 675 26 l 675 85 l 69 85 l 69 26 z "},"◊":{"ha":749,"x_min":0,"x_max":0,"o":"m 675 489 l 410 1036 l 342 1036 l 74 489 l 339 -57 l 407 -57 z m 599 488 l 400 85 b 376 15 392 65 381 32 l 372 15 b 349 85 369 31 361 57 l 150 492 l 346 892 b 372 964 358 918 367 943 l 375 964 b 400 892 381 944 390 914 z "}," ":{"ha":361,"x_min":0,"x_max":0,"o":""},"­":{"ha":463,"x_min":0,"x_max":0,"o":"m 60 292 l 403 292 l 403 367 l 60 367 z "},"ˉ":{"ha":333,"x_min":0,"x_max":0,"o":"m 350 908 l -17 908 l -17 842 l 350 842 z "},"Ω":{"ha":939,"x_min":0,"x_max":0,"o":"m 268 69 l 68 69 l 68 0 l 372 0 l 372 51 b 168 513 269 125 168 307 b 472 925 168 742 286 925 b 768 514 669 925 768 700 b 564 51 768 294 669 129 l 564 0 l 868 0 l 868 69 l 667 69 l 667 74 b 850 531 758 157 850 321 b 474 994 850 786 700 994 b 86 525 257 994 86 811 b 268 74 86 324 171 167 z "},"∕":{"ha":233,"x_min":0,"x_max":0,"o":"m -232 -8 l -169 -47 l 465 992 l 401 1031 z "}}}
